<svg id="Group_2448" data-name="Group 2448" xmlns="http://www.w3.org/2000/svg" xmlns:xlink="http://www.w3.org/1999/xlink" width="44.194" height="32.846" viewBox="0 0 44.194 32.846">
  <defs>
    <clipPath id="clip-path">
      <rect id="Rectangle_596" data-name="Rectangle 596" width="44.194" height="32.846" fill="#17985a"/>
    </clipPath>
  </defs>
  <g id="Group_2447" data-name="Group 2447" clip-path="url(#clip-path)">
    <path id="Path_1590" data-name="Path 1590" d="M38.29,15.489,57.821.252A3.717,3.717,0,0,0,56.471,0H19.751a3.718,3.718,0,0,0-1.346.251Z" transform="translate(-16.014)" fill="#123054"/>
    <path id="Path_1591" data-name="Path 1591" d="M22.936,41.706a1.049,1.049,0,0,1-1.283.005L.029,25.141A3.755,3.755,0,0,0,0,25.612V50.984a3.741,3.741,0,0,0,3.737,3.737h36.72a3.741,3.741,0,0,0,3.737-3.737V25.612a3.765,3.765,0,0,0-.029-.467Z" transform="translate(0 -21.875)" fill="#123054"/>
  </g>
</svg>
