<svg id="Group_2446" data-name="Group 2446" xmlns="http://www.w3.org/2000/svg" xmlns:xlink="http://www.w3.org/1999/xlink" width="44.876" height="44.876" viewBox="0 0 44.876 44.876">
  <defs>
    <clipPath id="clip-path">
      <rect id="Rectangle_595" data-name="Rectangle 595" width="44.876" height="44.876" fill="#123054"/>
    </clipPath>
  </defs>
  <g id="Group_2445" data-name="Group 2445" clip-path="url(#clip-path)">
    <path id="Path_1586" data-name="Path 1586" d="M24.19,175.022l1.233-1.7a3.018,3.018,0,0,1,3.313-1.151l7.143,2.012a3.044,3.044,0,0,1,2.226,3.179c-.088,1.192-.006,2.4-.8,3.381-2.6,3.207-5.316,5.365-11.126,4.025A46.055,46.055,0,0,1,.4,158.99c-1.34-5.809.818-8.528,4.025-11.126.982-.793,2.189-.711,3.381-.8a3.044,3.044,0,0,1,3.179,2.226L13,156.433a3.018,3.018,0,0,1-1.151,3.313l-1.7,1.233A.767.767,0,0,0,9.938,162a43.626,43.626,0,0,0,13.235,13.233.766.766,0,0,0,1.017-.207" transform="translate(0 -140.293)" fill="#123054" fill-rule="evenodd"/>
    <path id="Path_1587" data-name="Path 1587" d="M466.178,23.471a1.066,1.066,0,0,0,2.127-.142,25.052,25.052,0,0,0-7.426-15.9A25.052,25.052,0,0,0,444.979,0a1.066,1.066,0,0,0-.142,2.127,22.914,22.914,0,0,1,14.53,6.811,22.914,22.914,0,0,1,6.811,14.53" transform="translate(-423.432 -0.001)" fill="#123054"/>
    <path id="Path_1588" data-name="Path 1588" d="M468.666,158.8a1.066,1.066,0,0,0,2.127-.142,17.995,17.995,0,0,0-16.347-16.347,1.066,1.066,0,0,0-.142,2.127A15.889,15.889,0,0,1,468.666,158.8" transform="translate(-432.464 -135.76)" fill="#123054"/>
    <path id="Path_1589" data-name="Path 1589" d="M471.154,294.119a1.066,1.066,0,1,0,2.127-.142,10.294,10.294,0,0,0-9.368-9.368,1.066,1.066,0,0,0-.142,2.127,8.189,8.189,0,0,1,7.382,7.382" transform="translate(-441.496 -271.519)" fill="#123054"/>
  </g>
</svg>
