<svg xmlns="http://www.w3.org/2000/svg" xmlns:xlink="http://www.w3.org/1999/xlink" width="31" height="31" viewBox="0 0 31 31">
  <defs>
    <clipPath id="clip-path">
      <rect id="Rectangle_431" data-name="Rectangle 431" width="31" height="31" fill="none"/>
    </clipPath>
  </defs>
  <g id="Group_2151" data-name="Group 2151" transform="translate(0 0.378)">
    <g id="Group_2150" data-name="Group 2150" transform="translate(0 -0.378)" clip-path="url(#clip-path)">
      <path id="Path_379" data-name="Path 379" d="M24.216,3H6.857A3.861,3.861,0,0,0,3,6.857V18.43a3.861,3.861,0,0,0,3.857,3.857h9.287l6.479,5.555a.971.971,0,0,0,.629.231.95.95,0,0,0,.4-.089.961.961,0,0,0,.561-.876V22.287a3.861,3.861,0,0,0,3.857-3.857V6.857A3.861,3.861,0,0,0,24.216,3" transform="translate(2.786 3.155)" fill="#17985a" opacity="0.45"/>
      <path id="Path_380" data-name="Path 380" d="M3,6.857V18.43a3.849,3.849,0,0,0,2.615,3.634L9.857,18.43H18.43a5.793,5.793,0,0,0,5.786-5.786V3H6.857A3.861,3.861,0,0,0,3,6.857" transform="translate(2.786 3.155)" fill="#fafafa"/>
      <path id="Path_381" data-name="Path 381" d="M21.216,0H3.857A3.861,3.861,0,0,0,0,3.857V15.43a3.861,3.861,0,0,0,3.857,3.857v4.822a.964.964,0,0,0,1.591.733l6.481-5.555h9.287a3.861,3.861,0,0,0,3.857-3.857V3.857A3.861,3.861,0,0,0,21.216,0" transform="translate(0 0.369)" fill="#17985a"/>
      <path id="Path_382" data-name="Path 382" d="M15.537,3H3.964a.964.964,0,0,0,0,1.929H15.537a.964.964,0,1,0,0-1.929" transform="translate(2.786 3.155)" fill="#fafafa"/>
      <path id="Path_383" data-name="Path 383" d="M11.679,5H3.964a.964.964,0,0,0,0,1.929h7.715a.964.964,0,1,0,0-1.929" transform="translate(2.786 5.013)" fill="#fafafa"/>
    </g>
  </g>
</svg>
