<svg id="Group_2296" data-name="Group 2296" xmlns="http://www.w3.org/2000/svg" xmlns:xlink="http://www.w3.org/1999/xlink" width="30.744" height="23.058" viewBox="0 0 30.744 23.058">
  <defs>
    <clipPath id="clip-path">
      <path id="Path_1474" data-name="Path 1474" d="M0,15.372v5.765a1.927,1.927,0,0,0,1.919,1.922H7.686V20.176h-4.8v-4.8Zm27.862,0v4.8h-4.8v2.882h5.767a1.928,1.928,0,0,0,1.919-1.922V15.372ZM4.8,18.254H25.94V4.8H4.8ZM1.922,0A1.927,1.927,0,0,0,0,1.922V7.686H2.882v-4.8h4.8V0ZM23.058,0V2.882h4.8v4.8h2.882V1.922A1.928,1.928,0,0,0,28.823,0Z" fill="#17985a"/>
    </clipPath>
  </defs>
  <g id="Group_2295" data-name="Group 2295" clip-path="url(#clip-path)">
    <rect id="Rectangle_558" data-name="Rectangle 558" width="30.744" height="23.058" transform="translate(0)" fill="#17985a"/>
  </g>
</svg>