<svg id="Group_11772" data-name="Group 11772" xmlns="http://www.w3.org/2000/svg" xmlns:xlink="http://www.w3.org/1999/xlink" width="67.235" height="28.931" viewBox="0 0 67.235 28.931">
  <defs>
    <clipPath id="clip-path">
      <rect id="Rectangle_20187" data-name="Rectangle 20187" width="67.235" height="28.931" fill="none"/>
    </clipPath>
  </defs>
  <g id="Group_11771" data-name="Group 11771" clip-path="url(#clip-path)">
    <path id="Path_5040" data-name="Path 5040" d="M62.875,0H4.36A4.36,4.36,0,0,0,0,4.36V24.571a4.36,4.36,0,0,0,4.36,4.36H62.875a4.36,4.36,0,0,0,4.36-4.36V4.36A4.36,4.36,0,0,0,62.875,0" fill="#f42a2f"/>
    <path id="Path_5041" data-name="Path 5041" d="M423.5,156h-4.944v-9.259a.371.371,0,0,0-.371-.371h-1.446a.371.371,0,0,0-.371.371v10.927a.371.371,0,0,0,.371.371h6.76a.371.371,0,0,0,.371-.371v-1.3A.371.371,0,0,0,423.5,156" transform="translate(-391.884 -137.769)" fill="#fff"/>
    <path id="Path_5042" data-name="Path 5042" d="M565.623,146.376H564.17a.371.371,0,0,0-.371.371v10.927a.371.371,0,0,0,.371.371h1.454a.371.371,0,0,0,.371-.371V146.747a.371.371,0,0,0-.371-.371" transform="translate(-530.65 -137.77)" fill="#fff"/>
    <path id="Path_5043" data-name="Path 5043" d="M638.885,146.376h-1.543a.371.371,0,0,0-.348.243l-3.1,8.425-3.1-8.425a.371.371,0,0,0-.348-.243H628.9a.371.371,0,0,0-.345.505l4.249,10.927a.37.37,0,0,0,.345.236h1.491a.371.371,0,0,0,.345-.236l4.249-10.927a.371.371,0,0,0-.345-.505" transform="translate(-591.572 -137.77)" fill="#fff"/>
    <path id="Path_5044" data-name="Path 5044" d="M828.5,156h-5.347v-2.955h4.676a.371.371,0,0,0,.371-.371v-1.3a.371.371,0,0,0-.371-.371h-4.676v-2.6h5.094a.371.371,0,0,0,.371-.371v-1.3a.371.371,0,0,0-.371-.371h-6.91a.371.371,0,0,0-.371.371v10.927a.371.371,0,0,0,.371.371H828.5a.371.371,0,0,0,.371-.371v-1.3A.371.371,0,0,0,828.5,156" transform="translate(-772.693 -137.769)" fill="#fff"/>
    <path id="Path_5045" data-name="Path 5045" d="M182.482,177.209a4.273,4.273,0,1,1-4.273-4.273,4.273,4.273,0,0,1,4.273,4.273" transform="translate(-163.71 -162.768)" fill="#fff"/>
  </g>
</svg>