<svg id="Group_2153" data-name="Group 2153" xmlns="http://www.w3.org/2000/svg" xmlns:xlink="http://www.w3.org/1999/xlink" width="26.169" height="25.086" viewBox="0 0 26.169 25.086">
  <defs>
    <clipPath id="clip-path">
      <rect id="Rectangle_432" data-name="Rectangle 432" width="26.169" height="25.086" fill="#17985a"/>
    </clipPath>
  </defs>
  <g id="Group_2152" data-name="Group 2152" clip-path="url(#clip-path)">
    <path id="Path_384" data-name="Path 384" d="M20.384,164.75a1.338,1.338,0,0,0-.779-.779c-.857-.28-4.286-1.267-4.286-1.267a1.678,1.678,0,0,0-1.53.3l-1.278,1.235,0,0a.948.948,0,0,1-.993.113,23.036,23.036,0,0,1-3.37-2.864,21.917,21.917,0,0,1-2.508-3.108.948.948,0,0,1,.13-.991l0,0,1.257-1.257a1.678,1.678,0,0,0,.331-1.524s-.928-3.446-1.193-4.307a1.338,1.338,0,0,0-.766-.792,2.268,2.268,0,0,0-.952-.2h-.6a2.142,2.142,0,0,0-.928.2c-.1.061-2.066,1.16-2.518,2.385a6.546,6.546,0,0,0-.4,2.385,12.041,12.041,0,0,0,1.126,4.771,22.67,22.67,0,0,0,4.363,5.8,22.379,22.379,0,0,0,5.279,4.006,12.041,12.041,0,0,0,4.75,1.209,6.546,6.546,0,0,0,2.392-.356c1.233-.43,2.366-2.373,2.429-2.476a2.142,2.142,0,0,0,.215-.924l.01-.6a2.269,2.269,0,0,0-.185-.956" transform="translate(0 -144.984)" fill="#17985a"/>
    <path id="Path_385" data-name="Path 385" d="M383.959,13.73a1,1,0,0,1-.967-.735,14.457,14.457,0,0,0-7.358-9.313A15.2,15.2,0,0,0,370.425,2a1,1,0,1,1,.166-2,17.114,17.114,0,0,1,5.98,1.9,16.5,16.5,0,0,1,4.772,3.749,17.258,17.258,0,0,1,3.585,6.8,1,1,0,0,1-.968,1.273" transform="translate(-358.795 0)" fill="#17985a"/>
    <path id="Path_386" data-name="Path 386" d="M387.151,154.53a1,1,0,0,1-.967-.735,9.289,9.289,0,0,0-4.726-5.985,9.731,9.731,0,0,0-3.336-1.078,1,1,0,1,1,.166-2,11.754,11.754,0,0,1,4.106,1.3,11.307,11.307,0,0,1,3.27,2.569,11.81,11.81,0,0,1,2.455,4.655,1,1,0,0,1-.968,1.273" transform="translate(-366.27 -140.533)" fill="#17985a"/>
    <path id="Path_387" data-name="Path 387" d="M378.628,284.877a1,1,0,0,1-.967-.736,4.987,4.987,0,0,0-4.158-3.661,1,1,0,0,1,.166-2,6.985,6.985,0,0,1,2.482.783A6.828,6.828,0,0,1,379.6,283.6a1,1,0,0,1-.968,1.273" transform="translate(-361.785 -270.405)" fill="#17985a"/>
  </g>
</svg>
