<svg xmlns="http://www.w3.org/2000/svg" xmlns:xlink="http://www.w3.org/1999/xlink" width="35.056" height="56.488" viewBox="0 0 35.056 56.488">
  <defs>
    <clipPath id="clip-path">
      <path id="Path_1476" data-name="Path 1476" d="M18.7,266.927c0,2.753,5.982,4.985,13.361,4.985s13.361-2.232,13.361-4.985-5.981-4.985-13.361-4.985S18.7,264.174,18.7,266.927" transform="translate(-18.703 -261.942)" fill="none"/>
    </clipPath>
    <radialGradient id="radial-gradient" cx="0.5" cy="0.5" r="1.011" gradientTransform="matrix(0.373, 0, 0, -0.4, -0.078, 1.4)" gradientUnits="objectBoundingBox">
      <stop offset="0" stop-color="#999"/>
      <stop offset="1" stop-color="#fff"/>
    </radialGradient>
    <clipPath id="clip-path-2">
      <rect id="Rectangle_565" data-name="Rectangle 565" width="35.056" height="56.488" fill="none"/>
    </clipPath>
    <clipPath id="clip-path-4">
      <rect id="Rectangle_567" data-name="Rectangle 567" width="22.25" height="18.573" fill="#ffb000"/>
    </clipPath>
  </defs>
  <g id="Group_2314" data-name="Group 2314" transform="translate(-627.972 -540.012)">
    <g id="Group_2310" data-name="Group 2310" transform="translate(627.972 540.012)">
      <g id="Group_2305" data-name="Group 2305" transform="translate(3.321 46.518)" style="mix-blend-mode: multiply;isolation: isolate">
        <g id="Group_2304" data-name="Group 2304" clip-path="url(#clip-path)">
          <rect id="Rectangle_564" data-name="Rectangle 564" width="26.722" height="9.97" transform="translate(0 0)" fill="url(#radial-gradient)"/>
        </g>
      </g>
      <g id="Group_2307" data-name="Group 2307">
        <g id="Group_2306" data-name="Group 2306" clip-path="url(#clip-path-2)">
          <path id="Path_1477" data-name="Path 1477" d="M28.308,0H6.748A6.748,6.748,0,0,0,0,6.748V23.561a6.748,6.748,0,0,0,6.748,6.748H8.843l8.589,18.376,8.591-18.376h2.285a6.748,6.748,0,0,0,6.748-6.748V6.748A6.748,6.748,0,0,0,28.308,0" fill="#ffb000"/>
        </g>
      </g>
      <g id="Group_2309" data-name="Group 2309">
        <g id="Group_2308" data-name="Group 2308" clip-path="url(#clip-path-2)">
          <path id="Path_1478" data-name="Path 1478" d="M15.477,34.666a5.622,5.622,0,0,0,5.69,5.552H39.346a5.622,5.622,0,0,0,5.69-5.552V20.835a5.622,5.622,0,0,0-5.69-5.552H21.167a5.622,5.622,0,0,0-5.69,5.552Z" transform="translate(-12.728 -12.569)" fill="#fff"/>
        </g>
      </g>
    </g>
    <g id="Group_2313" data-name="Group 2313" transform="translate(634.375 545.927)">
      <path id="Path_1479" data-name="Path 1479" d="M130.708,119.662l2.867-2.867-4.411-4.191-2.648,2.648Z" transform="translate(-113.983 -101.448)" fill="#ffb000"/>
      <path id="Path_1480" data-name="Path 1480" d="M68.9,52.649l-2.336,2.336L69.146,57.7l2.472-2.472Z" transform="translate(-59.969 -47.434)" fill="#ffb000"/>
      <path id="Path_1481" data-name="Path 1481" d="M26.918,10.857l-.624-.593L24.177,12.38,24.77,13Z" transform="translate(-21.782 -9.247)" fill="#ffb000"/>
      <g id="Group_2312" data-name="Group 2312">
        <g id="Group_2311" data-name="Group 2311" clip-path="url(#clip-path-4)">
          <path id="Path_1482" data-name="Path 1482" d="M4.39,15.375l.505-.505.594.594,3.973-3.973-.429-.429a2.13,2.13,0,0,1,.264-.318,4.018,4.018,0,0,1,2.4-1.008S9.221,7.062,6.94,8.968l-.523-.523L2.444,12.419l.594.594-.505.505-.772-.772L0,14.508l3.4,3.4,1.761-1.761Z" transform="translate(0 -7.462)" fill="#ffb000"/>
          <path id="Path_1483" data-name="Path 1483" d="M54.94,15.6a4.747,4.747,0,0,0,6.493-5.315l-2.589,2.589-2.93-.785-.785-2.93,2.588-2.588A4.747,4.747,0,0,0,52.4,13.061l-8.283,8.283a1.794,1.794,0,0,0,2.537,2.537ZM45.8,23a.561.561,0,1,1,0-.793.559.559,0,0,1,0,.793" transform="translate(-39.275 -5.834)" fill="#ffb000"/>
          <line id="Line_45" data-name="Line 45" transform="translate(17.503 0)" fill="none" stroke="#f1f2f2" stroke-linecap="round" stroke-linejoin="round" stroke-width="0"/>
        </g>
      </g>
    </g>
  </g>
</svg>
