<svg id="Group_2292" data-name="Group 2292" xmlns="http://www.w3.org/2000/svg" xmlns:xlink="http://www.w3.org/1999/xlink" width="24.261" height="24.261" viewBox="0 0 24.261 24.261">
  <defs>
    <clipPath id="clip-path">
      <path id="Path_1472" data-name="Path 1472" d="M13.647,6.444v1.9h-1.9a1.137,1.137,0,1,0,0,2.275h1.9v1.9a1.137,1.137,0,1,0,2.274,0v-1.9h1.9a1.137,1.137,0,0,0,0-2.275h-1.9v-1.9a1.137,1.137,0,0,0-2.274,0M8.34,9.477a6.444,6.444,0,1,1,6.444,6.444A6.445,6.445,0,0,1,8.34,9.477M14.784,0A9.477,9.477,0,0,0,6.856,14.669h0L.839,20.223a2.274,2.274,0,1,0,3.08,3.336l6.273-5.79A9.477,9.477,0,1,0,14.784,0Z" transform="translate(0)" fill="#17985a"/>
    </clipPath>
  </defs>
  <g id="Group_2291" data-name="Group 2291" transform="translate(0)" clip-path="url(#clip-path)">
    <rect id="Rectangle_556" data-name="Rectangle 556" width="24.261" height="24.261" transform="translate(0 0)" fill="#17985a"/>
  </g>
</svg>
