<svg id="Group_2294" data-name="Group 2294" xmlns="http://www.w3.org/2000/svg" xmlns:xlink="http://www.w3.org/1999/xlink" width="24.261" height="24.261" viewBox="0 0 24.261 24.261">
  <defs>
    <clipPath id="clip-path">
      <path id="Path_1473" data-name="Path 1473" d="M11.752,8.34a1.137,1.137,0,0,0,0,2.275h6.065a1.137,1.137,0,0,0,0-2.275ZM8.34,9.477a6.444,6.444,0,1,1,6.444,6.444A6.445,6.445,0,0,1,8.34,9.477M14.784,0A9.478,9.478,0,0,0,6.856,14.669L.839,20.223a2.274,2.274,0,1,0,3.08,3.336l6.273-5.79A9.477,9.477,0,1,0,14.784,0Z" fill="#17985a"/>
    </clipPath>
  </defs>
  <g id="Group_2293" data-name="Group 2293" clip-path="url(#clip-path)">
    <rect id="Rectangle_557" data-name="Rectangle 557" width="24.261" height="24.261" transform="translate(0 0)" fill="#17985a"/>
  </g>
</svg>