<svg xmlns="http://www.w3.org/2000/svg" xmlns:xlink="http://www.w3.org/1999/xlink" width="82.626" height="79.992" viewBox="0 0 82.626 79.992">
  <defs>
    <clipPath id="clip-path">
      <rect id="Rectangle_594" data-name="Rectangle 594" width="82.626" height="79.992" transform="translate(0 0)" fill="none"/>
    </clipPath>
  </defs>
  <g id="Group_2444" data-name="Group 2444" transform="translate(0 -0.004)">
    <g id="Group_2443" data-name="Group 2443" transform="translate(0 0.004)" clip-path="url(#clip-path)">
      <path id="Path_1585" data-name="Path 1585" d="M37.434,40.078l-3.416-3.415a2.727,2.727,0,0,0-3.256.459c-2.221,2.221.476,3.24-.661,4.509-1.755,1.959-2.172,2.3-3.456,2.584-3.206.7-5.48,1.476-7.328,3.323L2.9,63.954c-8.654,8.654,3.955,22,12.848,13.109L32.166,60.647c1.847-1.847,2.62-4.122,3.323-7.328.281-1.283.626-1.7,2.584-3.456,1.269-1.138,2.289,1.559,4.509-.661a2.71,2.71,0,0,0,.029-3.821L37.66,40.31Zm12.62-11.6-.323.323c.961.96,1.94,1.935,2.916,2.908l2.974-2.974.018-.008-.028-.024L69.234,15.077l3.75-1.7a3.55,3.55,0,0,0,1.735-1.629L78.2,5.163,76.179,3.147l-6.4,3.4a3.55,3.55,0,0,0-1.629,1.735l-1.7,3.75L50.033,28.454ZM72.961,73.023a.389.389,0,0,0,.349-.261.653.653,0,0,0-.087-.436l-7.669-7.843,8.1-8.1L81.5,64.222a.421.421,0,0,0,.61,0c.087-.087.087-.087.087-.174a18.412,18.412,0,0,0-4.532-16.47c-4.183-4.183-9.063-3.137-12.287-2.44-.436.087-.959.174-1.307.261-2.963-2.789-24.139-23.878-27.1-27.015.087-.349.174-.7.261-1.133.784-3.224,1.917-7.93-2.353-12.287A18.073,18.073,0,0,0,18.583.432a.478.478,0,0,0-.349.523.3.3,0,0,0,.087.174L25.99,8.972l-8.1,8.1L10.043,9.233a.421.421,0,0,0-.61,0c-.087.087-.087.087-.087.174a18.46,18.46,0,0,0-.436,3.834,18.009,18.009,0,0,0,5.054,12.636c4.183,4.183,9.063,3.137,12.287,2.44.436-.087.959-.174,1.307-.261,2.963,2.789,24.139,23.878,27.1,27.015L54.4,56.2c-.784,3.137-2,8.017,2.266,12.287a18.316,18.316,0,0,0,16.3,4.532" transform="translate(0 -0.004)" fill="#9caae4" fill-rule="evenodd"/>
    </g>
  </g>
</svg>
