<svg xmlns="http://www.w3.org/2000/svg" xmlns:xlink="http://www.w3.org/1999/xlink" width="67.14" height="75.185" viewBox="0 0 67.14 75.185">
  <defs>
    <clipPath id="clip-path">
      <rect id="Rectangle_585" data-name="Rectangle 585" width="67.14" height="75.185" fill="none"/>
    </clipPath>
  </defs>
  <g id="Group_2402" data-name="Group 2402" transform="translate(0 0)">
    <g id="Group_2401" data-name="Group 2401" transform="translate(0 0)" clip-path="url(#clip-path)">
      <path id="Path_1519" data-name="Path 1519" d="M41.52,16.431C41.5,27.42,35.411,36.315,27.908,36.315S14.321,27.42,14.3,16.431a91.529,91.529,0,0,0,13.611.888,91.549,91.549,0,0,0,13.612-.888" transform="translate(5.661 6.506)" fill="#d2d2d2" fill-rule="evenodd"/>
      <path id="Path_1520" data-name="Path 1520" d="M48.123,18.733v.035a.5.5,0,0,1-.059.226c-.723,1.545-8.281,2.55-17.732,2.615H28.4c-9.452-.063-17.009-1.069-17.732-2.615a.483.483,0,0,1-.059-.226v-.035c-.038-1.706,1.416-2.856,3.761-2.772V13.8A13.855,13.855,0,0,1,24.3.558V9.4a1.454,1.454,0,0,0,2.908,0V.035l.26-.017h0L27.819,0h0l.352,0h2.387q.176,0,.352,0h0c.116,0,.233.008.35.014h0l.254.017V9.4a1.454,1.454,0,0,0,2.908,0V.557A13.855,13.855,0,0,1,44.36,13.8v2.16c2.345-.084,3.8,1.067,3.762,2.772" transform="translate(4.202 0)" fill="#9caae4" fill-rule="evenodd"/>
      <path id="Path_1521" data-name="Path 1521" d="M7.689,37.739l4.027-1.746L12.7,63.287H0l2.746-20.6A6.3,6.3,0,0,1,4.333,39.2c.845-.892,2.109-.92,3.356-1.46M22.38,30.423l1-.373h.666c1.632,2.126,5.285,3.606,9.529,3.606s7.9-1.48,9.529-3.606h.664l1,.374-1.1,17.518H23.483Zm32.811,5.57,4.259,1.746c2.513,1.029,4.587,2.268,4.943,4.943l2.746,20.6H54.213Z" transform="translate(0 11.899)" fill="#d2d2d2" fill-rule="evenodd"/>
      <path id="Path_1522" data-name="Path 1522" d="M10.158,34.34l6-3.167,1.058,18.816H41.882l1.057-18.816,6,3.167-.86,28.5H11.018Z" transform="translate(4.022 12.343)" fill="#9caae4" fill-rule="evenodd"/>
    </g>
  </g>
</svg>
