<svg id="Group_2438" data-name="Group 2438" xmlns="http://www.w3.org/2000/svg" xmlns:xlink="http://www.w3.org/1999/xlink" width="58.775" height="98.17" viewBox="0 0 58.775 98.17">
  <defs>
    <clipPath id="clip-path">
      <rect id="Rectangle_591" data-name="Rectangle 591" width="58.775" height="98.17" fill="#9caae4"/>
    </clipPath>
  </defs>
  <g id="Group_2437" data-name="Group 2437" clip-path="url(#clip-path)">
    <path id="Path_1557" data-name="Path 1557" d="M193.935,320.686h-8.991a1.658,1.658,0,1,1,0-3.316h8.991a1.658,1.658,0,1,1,0,3.316" transform="translate(-152.899 -264.753)" fill="#9caae4"/>
    <path id="Path_1558" data-name="Path 1558" d="M292.867,320.686h-7.774a1.658,1.658,0,1,1,0-3.316h7.774a1.658,1.658,0,1,1,0,3.316" transform="translate(-236.444 -264.753)" fill="#9caae4"/>
    <path id="Path_1559" data-name="Path 1559" d="M11.437,320.686h-8.2a1.658,1.658,0,1,1,0-3.316h8.2a1.658,1.658,0,1,1,0,3.316" transform="translate(-1.315 -264.753)" fill="#9caae4"/>
    <path id="Path_1560" data-name="Path 1560" d="M107.557,320.686H98.634a1.658,1.658,0,1,1,0-3.316h8.923a1.658,1.658,0,1,1,0,3.316" transform="translate(-80.898 -264.753)" fill="#9caae4"/>
    <path id="Path_1561" data-name="Path 1561" d="M202.876,151.569a9.887,9.887,0,0,0,4.7-5.159l.055.161a9.845,9.845,0,0,1-4.753,5" transform="translate(-169.241 -122.137)" fill="#9caae4"/>
    <path id="Path_1562" data-name="Path 1562" d="M223.935,231.163a7.1,7.1,0,0,1-1.5.723l0,0-.053.018-.549-1.593v0l-10.612-30.86-.539-1.567-.57-1.658-6.751-19.633q.55-.191,1.078-.436a13.17,13.17,0,0,0,4.136-2.974,12.648,12.648,0,0,0,.872-1.033l8.309,24.167.539,1.567.57,1.658,8,23.27a7.138,7.138,0,0,1-2.928,8.351" transform="translate(-169.642 -143.609)" fill="#9caae4"/>
    <path id="Path_1563" data-name="Path 1563" d="M193.208,148.843q-.527.244-1.078.436l6.751,19.633h.57c.031,0,.063,0,.094,0l.078,0c.027,0,.053.007.08.012l.063.01.033.007c.023,0,.045.01.066.017a1.527,1.527,0,0,1,.3.109Zm0,0q-.527.244-1.078.436l6.751,19.633h.57c.031,0,.063,0,.094,0l.078,0c.027,0,.053.007.08.012l.063.01.033.007c.023,0,.045.01.066.017a1.527,1.527,0,0,1,.3.109Zm0,0q-.527.244-1.078.436l6.751,19.633h.57c.031,0,.063,0,.094,0l.078,0c.027,0,.053.007.08.012l.063.01.033.007c.023,0,.045.01.066.017a1.527,1.527,0,0,1,.3.109Zm0,0q-.527.244-1.078.436l6.751,19.633h.57c.031,0,.063,0,.094,0l.078,0c.027,0,.053.007.08.012l.063.01.033.007c.023,0,.045.01.066.017a1.527,1.527,0,0,1,.3.109Zm3.568-9.435a1.156,1.156,0,0,0-1.106.733,8.711,8.711,0,0,1-5.02,4.939,1.16,1.16,0,0,0-.71,1.389,9.8,9.8,0,0,0,2.082-.728.215.215,0,0,0,.028-.013,9.844,9.844,0,0,0,4.753-5,9.515,9.515,0,0,0,.424-1.217,1.153,1.153,0,0,0-.453-.1m19.96,55.712-7.874-22.892-.7-2.036-.439-1.28-8.692-25.276a13.318,13.318,0,0,1-1.686,2.233l8.238,23.96.385,1.119.385,1.117,8.188,23.811a5.982,5.982,0,0,1-2.691,7.139l-.012.007,0-.013-10.9-31.7-.769-2.236-6.957-20.231q-.527.244-1.078.436c-.363.129-.734.242-1.111.338l6.635,19.295,1.141,3.316,10.887,31.659.371,1.083a1.16,1.16,0,0,0,1.474.72l.053-.018.033-.012a8.3,8.3,0,0,0,5.121-10.539m-23.527-46.277q-.527.244-1.078.436l6.751,19.633h.57c.031,0,.063,0,.094,0l.078,0c.027,0,.053.007.08.012l.063.01.033.007c.023,0,.045.01.066.017a1.527,1.527,0,0,1,.3.109Zm0,0q-.527.244-1.078.436l6.751,19.633h.57c.031,0,.063,0,.094,0l.078,0c.027,0,.053.007.08.012l.063.01.033.007c.023,0,.045.01.066.017a1.527,1.527,0,0,1,.3.109Zm0,0q-.527.244-1.078.436l6.751,19.633h.57c.031,0,.063,0,.094,0l.078,0c.027,0,.053.007.08.012l.063.01.033.007c.023,0,.045.01.066.017a1.527,1.527,0,0,1,.3.109Z" transform="translate(-158.416 -116.295)" fill="#9caae4"/>
    <path id="Path_1564" data-name="Path 1564" d="M310.063,533.86A1.658,1.658,0,0,1,308.4,532.2v-8.265a1.658,1.658,0,0,1,3.316,0V532.2a1.658,1.658,0,0,1-1.658,1.658" transform="translate(-257.275 -435.691)" fill="#9caae4"/>
    <path id="Path_1565" data-name="Path 1565" d="M30.882,176.932l-6.744,19.611-.57,1.658-.539,1.567L12.418,230.629l-.549,1.593-.055-.018,0,0a7.142,7.142,0,0,1-4.43-9.074l8-23.27.57-1.658.539-1.567,8.288-24.1A13.215,13.215,0,0,0,29.8,176.5c.351.159.711.3,1.079.429" transform="translate(-5.832 -143.926)" fill="#9caae4"/>
    <path id="Path_1566" data-name="Path 1566" d="M23.97,151.651l-6.948,20.2a1.528,1.528,0,0,1,.3-.109c.022-.007.043-.012.066-.017l.033-.007.063-.01c.027,0,.053-.008.08-.012l.078,0c.031,0,.063,0,.094,0h.57l6.744-19.611c-.368-.126-.728-.27-1.079-.429m0,0-6.948,20.2a1.528,1.528,0,0,1,.3-.109c.022-.007.043-.012.066-.017l.033-.007.063-.01c.027,0,.053-.008.08-.012l.078,0c.031,0,.063,0,.094,0h.57l6.744-19.611c-.368-.126-.728-.27-1.079-.429m0,0-6.948,20.2a1.528,1.528,0,0,1,.3-.109c.022-.007.043-.012.066-.017l.033-.007.063-.01c.027,0,.053-.008.08-.012l.078,0c.031,0,.063,0,.094,0h.57l6.744-19.611c-.368-.126-.728-.27-1.079-.429m0,0-6.948,20.2a1.528,1.528,0,0,1,.3-.109c.022-.007.043-.012.066-.017l.033-.007.063-.01c.027,0,.053-.008.08-.012l.078,0c.031,0,.063,0,.094,0h.57l6.744-19.611c-.368-.126-.728-.27-1.079-.429m0,0-6.948,20.2a1.528,1.528,0,0,1,.3-.109c.022-.007.043-.012.066-.017l.033-.007.063-.01c.027,0,.053-.008.08-.012l.078,0c.031,0,.063,0,.094,0h.57l6.744-19.611c-.368-.126-.728-.27-1.079-.429m3.15-3.085a1.16,1.16,0,0,0-.676-.587,8.722,8.722,0,0,1-5.144-4.571,1.165,1.165,0,0,0-1.112-.666,1.225,1.225,0,0,0-.154.02,9.827,9.827,0,0,0,7.194,6.5,1.156,1.156,0,0,0-.106-.693m-2.071,3.515c-.368-.126-.728-.27-1.079-.429l-6.948,20.2-.385,1.117-.385,1.119-10.9,31.7,0,.013-.012-.007s0,0,0,0a5.991,5.991,0,0,1-2.691-7.139l8.188-23.811.385-1.117.385-1.119,8.22-23.907a13.239,13.239,0,0,1-.875-1.023,12.809,12.809,0,0,1-.817-1.19l-8.667,25.2-.439,1.28-.7,2.036L.451,197.9a8.316,8.316,0,0,0,3.873,9.987,8.44,8.44,0,0,0,1.247.552l.045.015.055.018a1.131,1.131,0,0,0,.366.06,1.16,1.16,0,0,0,1.1-.783l.371-1.079,10.887-31.662.439-1.28.7-2.036,6.63-19.28q-.567-.139-1.112-.332m-1.079-.429-6.948,20.2a1.528,1.528,0,0,1,.3-.109c.022-.007.043-.012.066-.017l.033-.007.063-.01c.027,0,.053-.008.08-.012l.078,0c.031,0,.063,0,.094,0h.57l6.744-19.611c-.368-.126-.728-.27-1.079-.429m0,0-6.948,20.2a1.528,1.528,0,0,1,.3-.109c.022-.007.043-.012.066-.017l.033-.007.063-.01c.027,0,.053-.008.08-.012l.078,0c.031,0,.063,0,.094,0h.57l6.744-19.611c-.368-.126-.728-.27-1.079-.429m0,0-6.948,20.2a1.528,1.528,0,0,1,.3-.109c.022-.007.043-.012.066-.017l.033-.007.063-.01c.027,0,.053-.008.08-.012l.078,0c.031,0,.063,0,.094,0h.57l6.744-19.611c-.368-.126-.728-.27-1.079-.429m0,0-6.948,20.2a1.528,1.528,0,0,1,.3-.109c.022-.007.043-.012.066-.017l.033-.007.063-.01c.027,0,.053-.008.08-.012l.078,0c.031,0,.063,0,.094,0h.57l6.744-19.611c-.368-.126-.728-.27-1.079-.429m0,0-6.948,20.2a1.528,1.528,0,0,1,.3-.109c.022-.007.043-.012.066-.017l.033-.007.063-.01c.027,0,.053-.008.08-.012l.078,0c.031,0,.063,0,.094,0h.57l6.744-19.611c-.368-.126-.728-.27-1.079-.429" transform="translate(0 -119.075)" fill="#9caae4"/>
    <path id="Path_1567" data-name="Path 1567" d="M27.745,533.86a1.658,1.658,0,0,1-1.658-1.658v-8.265a1.658,1.658,0,1,1,3.316,0V532.2a1.658,1.658,0,0,1-1.658,1.658" transform="translate(-21.762 -435.691)" fill="#9caae4"/>
    <path id="Path_1568" data-name="Path 1568" d="M163.491,296.849h0a2.693,2.693,0,0,1-2.693-2.693V284.4a2.693,2.693,0,0,1,5.386,0v9.752a2.693,2.693,0,0,1-2.693,2.693" transform="translate(-134.139 -235.006)" fill="#9caae4"/>
    <path id="Path_1569" data-name="Path 1569" d="M157.65,274.71a3.859,3.859,0,0,0-3.855,3.855v9.752a3.854,3.854,0,0,0,7.708,0v-9.752a3.858,3.858,0,0,0-3.853-3.855m1.532,13.606a1.533,1.533,0,0,1-3.065,0v-9.752a1.533,1.533,0,1,1,3.065,0Z" transform="translate(-128.297 -229.166)" fill="#9caae4"/>
    <path id="Path_1570" data-name="Path 1570" d="M131.8,57.631a1.13,1.13,0,0,0,.058-.361V55.854a11.069,11.069,0,0,0-1.161-.386,10.778,10.778,0,0,0-1.161-.254l-.176-.028c-.048-.008-.1-.015-.148-.02s-.091-.013-.138-.018c-.154-.02-.308-.036-.466-.048l-.078-.007c-.025,0-.051,0-.078,0a.028.028,0,0,0-.012,0c-.048,0-.1-.007-.143-.008-.113-.007-.227-.012-.342-.015h-.013c-.093,0-.187,0-.282,0-.068,0-.136,0-.206,0a.212.212,0,0,0-.031,0c-.041,0-.083,0-.126,0-.076,0-.151,0-.227.008s-.154.008-.23.015c-.038,0-.076,0-.114.008l-.027,0c-.07.007-.139.012-.211.02-.1.01-.192.02-.287.033s-.161.022-.242.033l-.111.018c-.068.01-.136.022-.2.033s-.148.027-.222.041a11.324,11.324,0,0,0-1.161.3,11.168,11.168,0,0,0-1.161.431V57.27a1.132,1.132,0,0,0,.118.509,9.815,9.815,0,0,0,8.694,17.6.216.216,0,0,0,.028-.013,9.844,9.844,0,0,0,4.753-5,9.515,9.515,0,0,0,.424-1.217A9.826,9.826,0,0,0,131.8,57.631m-4.136,11.121a2.221,2.221,0,1,1,2.222-2.22,2.223,2.223,0,0,1-2.222,2.22" transform="translate(-98.308 -45.932)" fill="#d2d2d2"/>
    <path id="Path_1571" data-name="Path 1571" d="M156.555,17.178V9.47A2.47,2.47,0,0,1,159.027,7h1.489a2.47,2.47,0,0,1,2.47,2.47v7.708Z" transform="translate(-130.6 -5.839)" fill="#d2d2d2"/>
    <path id="Path_1572" data-name="Path 1572" d="M158.307,3.631v7.708a1.131,1.131,0,0,1-.058.361,1.16,1.16,0,0,1-2.263-.361V3.631a1.31,1.31,0,0,0-1.31-1.31h-1.489a1.312,1.312,0,0,0-1.311,1.31v7.708a1.16,1.16,0,0,1-2.2.509,1.132,1.132,0,0,1-.118-.509V3.631A3.635,3.635,0,0,1,153.187,0h1.489a3.634,3.634,0,0,1,3.631,3.631" transform="translate(-124.76)" fill="#9caae4"/>
  </g>
</svg>
