<svg id="Group_2440" data-name="Group 2440" xmlns="http://www.w3.org/2000/svg" xmlns:xlink="http://www.w3.org/1999/xlink" width="83.295" height="78.436" viewBox="0 0 83.295 78.436">
  <defs>
    <clipPath id="clip-path">
      <rect id="Rectangle_592" data-name="Rectangle 592" width="83.295" height="78.436" fill="none"/>
    </clipPath>
  </defs>
  <g id="Group_2439" data-name="Group 2439" transform="translate(0 0)" clip-path="url(#clip-path)">
    <path id="Path_1573" data-name="Path 1573" d="M20.827,37.614a10.619,10.619,0,0,1,7.363-9.322,17.457,17.457,0,0,1,5.935-1.036,17.676,17.676,0,0,1,5.963,1.027,10.612,10.612,0,0,1,7.363,9.331,9.213,9.213,0,0,1,.028,1.344v.43a26.98,26.98,0,0,1-2.79,11.468,16.709,16.709,0,0,1-3.938,5.067A9.429,9.429,0,0,1,34.4,58.4l-.336-.009a.036.036,0,0,1-.029.009,9.538,9.538,0,0,1-6.5-2.482,16.617,16.617,0,0,1-3.929-5.058,26.933,26.933,0,0,1-2.8-11.459v-.448a10.686,10.686,0,0,1,.019-1.344" transform="translate(-6.318 -8.281)" fill="#9caae4"/>
    <path id="Path_1574" data-name="Path 1574" d="M55.642,95.542a8.713,8.713,0,0,1-.606,2.585,5.818,5.818,0,0,1-5.291,3.723H5.914A5.837,5.837,0,0,1,.6,98.1a8.7,8.7,0,0,1-.569-2.315L.008,88.572A6.76,6.76,0,0,1,2.984,83.01a12.13,12.13,0,0,1,3.453-1.763l9.21-3.471,2.846-.709.756.13a4.749,4.749,0,0,1,2.221,1.531c.149.187.271.354.392.522q2.618,3.709,5.263,7.4l.7.98,5.1-7.166c.1-.15.2-.3.29-.448a7.179,7.179,0,0,1,1.147-1.484l.374-.3c1.772-1.278,3.7-1.073,5.59-.354.009,0,8.958,3.4,8.958,3.4a12.03,12.03,0,0,1,3.378,1.736,6.779,6.779,0,0,1,2.968,5.748Z" transform="translate(0 -23.415)" fill="#9caae4"/>
    <path id="Path_1575" data-name="Path 1575" d="M89.472,0H51a7.157,7.157,0,0,0-7.146,7.146v7.022a22.8,22.8,0,0,1,4.117.847V10.621H92.5V30.8a3.032,3.032,0,0,1-3.029,3.029H83.661a2.067,2.067,0,0,0-1.445.59L71.267,45.208V35.89a2.06,2.06,0,0,0-2.059-2.059H58.477a34.164,34.164,0,0,1-.789,4.117H67.15V50.124a2.053,2.053,0,0,0,1.263,1.9,2.02,2.02,0,0,0,.8.162,2.068,2.068,0,0,0,1.445-.59L84.505,37.949h4.967A7.157,7.157,0,0,0,96.619,30.8V7.146A7.157,7.157,0,0,0,89.472,0M50.409,7.8A2.483,2.483,0,0,1,47.97,5.358a2.486,2.486,0,0,1,2.439-2.442,2.554,2.554,0,0,1,2.443,2.442A2.487,2.487,0,0,1,50.409,7.8m10.042,0A2.372,2.372,0,0,1,58.1,5.262,2.469,2.469,0,0,1,60.45,2.824a2.364,2.364,0,0,1,2.439,2.439A2.5,2.5,0,0,1,60.45,7.8m9.948,0a2.486,2.486,0,0,1-2.443-2.439A2.489,2.489,0,0,1,70.4,2.916a2.552,2.552,0,0,1,2.439,2.442A2.484,2.484,0,0,1,70.4,7.8" transform="translate(-13.324 0)" fill="#d2d2d2"/>
  </g>
</svg>
