<svg id="Group_2404" data-name="Group 2404" xmlns="http://www.w3.org/2000/svg" xmlns:xlink="http://www.w3.org/1999/xlink" width="85.05" height="53.155" viewBox="0 0 85.05 53.155">
  <defs>
    <clipPath id="clip-path">
      <rect id="Rectangle_586" data-name="Rectangle 586" width="85.05" height="53.155" fill="none"/>
    </clipPath>
  </defs>
  <g id="Group_2403" data-name="Group 2403" transform="translate(0 0)" clip-path="url(#clip-path)">
    <path id="Path_1523" data-name="Path 1523" d="M1.581,0H30.774a1.586,1.586,0,0,1,1.58,1.58V9.975a1.586,1.586,0,0,1-1.58,1.582H1.581A1.586,1.586,0,0,1,0,9.975V1.58A1.586,1.586,0,0,1,1.581,0" transform="translate(0.001 -0.001)" fill="#d2d2d2" fill-rule="evenodd"/>
    <path id="Path_1524" data-name="Path 1524" d="M.069,8.5h13.1a1.585,1.585,0,0,1,1.58,1.58v8.4a1.586,1.586,0,0,1-1.58,1.58H.069Zm0,27.734h13.1a1.585,1.585,0,0,1,1.58,1.58v8.394a1.586,1.586,0,0,1-1.58,1.582H.069Z" transform="translate(0.044 5.362)" fill="#d2d2d2" fill-rule="evenodd"/>
    <path id="Path_1525" data-name="Path 1525" d="M1.581,17.008H30.774a1.586,1.586,0,0,1,1.58,1.58v8.394a1.586,1.586,0,0,1-1.58,1.582H1.581A1.586,1.586,0,0,1,0,26.983V18.588a1.586,1.586,0,0,1,1.58-1.58" transform="translate(0.001 10.725)" fill="#123054" fill-rule="evenodd"/>
    <path id="Path_1526" data-name="Path 1526" d="M23.124,0H52.319A1.586,1.586,0,0,1,53.9,1.58V9.975a1.586,1.586,0,0,1-1.58,1.582H23.124a1.586,1.586,0,0,1-1.58-1.582V1.58A1.586,1.586,0,0,1,23.124,0" transform="translate(13.586 -0.001)" fill="#123054" fill-rule="evenodd"/>
    <path id="Path_1527" data-name="Path 1527" d="M12.352,8.5H41.547a1.586,1.586,0,0,1,1.58,1.58v8.394a1.586,1.586,0,0,1-1.58,1.582H12.352a1.586,1.586,0,0,1-1.58-1.582V10.084a1.586,1.586,0,0,1,1.58-1.58" transform="translate(6.793 5.362)" fill="#d2d2d2" fill-rule="evenodd"/>
    <path id="Path_1528" data-name="Path 1528" d="M23.124,17.008H52.319a1.586,1.586,0,0,1,1.58,1.58v8.394a1.586,1.586,0,0,1-1.58,1.582H23.124a1.586,1.586,0,0,1-1.58-1.582V18.588a1.586,1.586,0,0,1,1.58-1.58" transform="translate(13.586 10.725)" fill="#d2d2d2" fill-rule="evenodd"/>
    <path id="Path_1529" data-name="Path 1529" d="M12.352,25.512H41.547a1.586,1.586,0,0,1,1.58,1.58v8.394a1.586,1.586,0,0,1-1.58,1.582H12.352a1.586,1.586,0,0,1-1.58-1.582V27.092a1.586,1.586,0,0,1,1.58-1.58" transform="translate(6.793 16.088)" fill="#d2d2d2" fill-rule="evenodd"/>
    <path id="Path_1530" data-name="Path 1530" d="M33.9,8.5H63.09a1.586,1.586,0,0,1,1.58,1.58v8.394a1.586,1.586,0,0,1-1.58,1.582H33.9a1.586,1.586,0,0,1-1.58-1.582V10.084A1.586,1.586,0,0,1,33.9,8.5" transform="translate(20.379 5.362)" fill="#d2d2d2" fill-rule="evenodd"/>
    <path id="Path_1531" data-name="Path 1531" d="M33.9,25.512H63.09a1.586,1.586,0,0,1,1.58,1.58v8.394a1.586,1.586,0,0,1-1.58,1.582H33.9a1.586,1.586,0,0,1-1.58-1.582V27.092a1.586,1.586,0,0,1,1.58-1.58" transform="translate(20.379 16.088)" fill="#123054" fill-rule="evenodd"/>
  </g>
</svg>
