<svg id="Group_2400" data-name="Group 2400" xmlns="http://www.w3.org/2000/svg" xmlns:xlink="http://www.w3.org/1999/xlink" width="68.233" height="68.233" viewBox="0 0 68.233 68.233">
  <defs>
    <clipPath id="clip-path">
      <rect id="Rectangle_584" data-name="Rectangle 584" width="68.233" height="68.233" fill="#123054"/>
    </clipPath>
  </defs>
  <g id="Group_2399" data-name="Group 2399" clip-path="url(#clip-path)">
    <path id="Path_1518" data-name="Path 1518" d="M46.225,58.549V31.69a9.7,9.7,0,0,0-9.683-9.683H9.684A9.7,9.7,0,0,0,0,31.69V58.549a9.7,9.7,0,0,0,9.684,9.684H36.543a9.7,9.7,0,0,0,9.683-9.684m-35.576-3.84a3.806,3.806,0,1,1-3.806,3.806,3.806,3.806,0,0,1,3.806-3.806m25.893-39.2A16.241,16.241,0,0,1,52.724,31.69V46.225h5.923a9.625,9.625,0,0,0,9.586-9.586V9.586A9.625,9.625,0,0,0,58.647,0H31.593a9.626,9.626,0,0,0-9.586,9.586v5.923Z" transform="translate(0 0)" fill="#123054" fill-rule="evenodd"/>
  </g>
</svg>
