<svg id="Group_2419" data-name="Group 2419" xmlns="http://www.w3.org/2000/svg" xmlns:xlink="http://www.w3.org/1999/xlink" width="96.389" height="80.481" viewBox="0 0 96.389 80.481">
  <defs>
    <clipPath id="clip-path">
      <rect id="Rectangle_588" data-name="Rectangle 588" width="96.389" height="80.481" fill="none"/>
    </clipPath>
  </defs>
  <g id="Group_2418" data-name="Group 2418" clip-path="url(#clip-path)">
    <path id="Path_1534" data-name="Path 1534" d="M.1,288.23a30.5,30.5,0,0,1,.054-5.28,7.651,7.651,0,0,1,5.556-6.078c2.468-.812,4.956-1.561,7.419-2.386a3.641,3.641,0,0,1,2.773.1,7.025,7.025,0,0,0,5.626.026,3.914,3.914,0,0,1,3.039-.1c2.264.812,4.577,1.483,6.853,2.262,4.208,1.44,6.03,3.987,6.076,8.42.01.951,0,1.9,0,2.8-2.468.68-26.852.818-37.4.24" transform="translate(0 -208.111)" fill="#123054"/>
    <path id="Path_1535" data-name="Path 1535" d="M281.52,288.434H244.484c-1.577-6,.517-9.926,6.151-11.765,1.371-.447,2.758-.843,4.124-1.3,2.09-.7,4.051-1.314,6.381-.394,1.266.5,3.04.062,4.479-.337a4.754,4.754,0,0,1,3.045.024c2.178.763,4.387,1.439,6.575,2.176,4.32,1.454,6.191,4.018,6.279,8.586.018.941,0,1.883,0,3.015" transform="translate(-185.137 -208.221)" fill="#123054"/>
    <path id="Path_1536" data-name="Path 1536" d="M160.155,111.119H123.208c-1.461-6,.716-9.955,6.328-11.762,1.556-.5,3.134-.941,4.67-1.5a7.932,7.932,0,0,1,5.558-.232,8.183,8.183,0,0,0,4.491-.227,5.664,5.664,0,0,1,3.608.067c1.994.7,4.017,1.323,6.02,2,4.723,1.6,6.416,3.987,6.394,9.019,0,.843-.076,1.686-.122,2.631" transform="translate(-93.159 -73.712)" fill="#123054"/>
    <path id="Path_1537" data-name="Path 1537" d="M43.025,186.343A8.137,8.137,0,0,1,46.46,179.2a8.306,8.306,0,0,1,13.21,5.939,15.243,15.243,0,0,1-3.05,11.131c-2.918,3.913-7.084,4.056-10.2.337a15.006,15.006,0,0,1-3.4-10.265" transform="translate(-32.644 -134.743)" fill="#123054"/>
    <path id="Path_1538" data-name="Path 1538" d="M287.286,187.041c-.032-4.936,2.072-8.015,6.252-9.15a8.191,8.191,0,0,1,9.96,5.632,14.472,14.472,0,0,1-3.647,13.882c-2.513,2.758-6.288,2.56-8.859-.34a14.1,14.1,0,0,1-3.706-10.024" transform="translate(-217.999 -134.784)" fill="#123054"/>
    <path id="Path_1539" data-name="Path 1539" d="M182.564,9.29a14.418,14.418,0,0,1-3.307,9.741c-2.911,3.68-7.071,3.637-10.012-.03A15.246,15.246,0,0,1,165.9,8.246,8.526,8.526,0,0,1,174.284,0c4.6,0,8.139,3.66,8.279,8.567.008.288,0,.577,0,.723" transform="translate(-125.865 0)" fill="#123054"/>
    <path id="Path_1540" data-name="Path 1540" d="M162.206,192.926c-3.425,2.709-6.7,2.634-10.029.022-1.815.924-3.6,1.835-5.385,2.737a11.2,11.2,0,0,1-1.82.852,1.5,1.5,0,0,1-2.079-.994,2.8,2.8,0,0,1,.521-2.005,4.874,4.874,0,0,1,1.7-1.036c1.768-.948,3.544-1.882,5.356-2.842-.194-3.754,1.272-6.445,4.866-7.92,0-1.493,0-2.922,0-4.351,0-.576,0-1.154.046-1.728a1.729,1.729,0,0,1,1.863-1.779c1.206,0,1.676.845,1.7,1.91.046,1.912.013,3.827.013,5.841,3.534,1.52,5.246,4.163,4.964,8.028,1.689.892,3.3,1.739,4.9,2.59.594.315,1.205.605,1.768.969.874.565,1.466,1.291.911,2.4a1.742,1.742,0,0,1-2.448.8,14.737,14.737,0,0,1-1.541-.782l-5.308-2.714m-4.968-7.775a3.262,3.262,0,0,0-3.138,3.14,3.1,3.1,0,0,0,6.2.112,3.351,3.351,0,0,0-3.064-3.252" transform="translate(-108.404 -131.949)" fill="#d2d2d2"/>
  </g>
</svg>
